<?xml version="1.0" encoding="UTF-8"?>
<svg version="1.1" viewBox="0 0 2048 1153" width="1280" height="1280" xmlns="http://www.w3.org/2000/svg">
<path transform="translate(0)" d="m0 0h2048v1153h-2048z" fill="#DCCFB5"/>
<path transform="translate(699,192)" d="m0 0h25l16 4 7 1 6-3 8-2h26l17 2 17 4 26 9 16 8 14 8 17 13 14 12 14 14 9 11 11 16 6 9 14 28 5 14 4 10 4 18 4 32v34l-3 26-5 25-9 35-3 10-2 14v23l4 18 6 16 8 16 10 19 8 16 9 19 6 13 7 21 5 17 4 24v29l-3 16-7 16-6 10-8 9-15 11-12 7 1 1 21 1 13 2 22 8 10 6 17 17 8 14 5 12 3 11v28l-6 20-8 15-10 14-10 11-14 11-16 9-8 4-26 9-26 5-11 1-24 1h-80l-17 3-27 6-13 2-20 1-6-2-5-5-1-3-2-1-1 6-4 4-4 1h-12l-23-3-41-8-7-1h-91l-29-3-20-4-17-5-18-8-14-8-12-9-14-14-10-14-9-19-5-15v-26l2-10h2l1-5 8-17 8-11 5-5 11-10 10-5 14-5 17-4 7-1h20l-2-3-12-6-12-9-12-12-5-9-8-18-3-20v-16l2-18 2-10 3-9 12-35 7-14 4-9 9-19 5-10 6-10 4-8 4-9 4-8 6-21 1-8v-16l-3-22-3-12-6-21-7-28-3-21-1-9v-34l4-31 6-25 5-14 5-12 4-9 4-6 5-9 14-20 11-13 7-8 10-10 11-9 16-12 13-8 12-7 26-10 26-6z" fill="#060404"/>
<path transform="translate(726,103)" d="m0 0h41l29 3 31 6 26 7 24 8 28 12 26 13 15 9 27 18 21 16 13 11 12 11 13 13 7 8 7 7 9 11 10 13 13 20 9 15 10 18 13 27 11 29 7 24 7 34 5 35 1 16v25l-2 26-6 36-6 27-1 8-21 21-11 9-10 9-8 7-13 12-2 3h-2l-2 4-10 11-10 14-9 16-6 13h-2l-3-13-9-27-4-11-7-14-12-26-6-10-9-19-6-11-5-16-3-14v-23l3-17 11-42 5-25 3-26v-34l-4-32-5-21-8-21-5-10-6-11-4-8-11-17-10-13-12-13-9-9-11-9-16-12-21-12-20-8-22-7-16-3-11-1h-26l-13 4-1 1-7-1-16-4h-25l-15 2-15 3-15 5-20 8-20 12-19 14-15 13-11 11-9 11-13 18-7 11-6 10-4 9-6 15-5 14-5 22-4 31v34l2 19 5 23 9 35 2 5 4 21 1 10v16l-3 16-4 13-5 11-4 8-11 20-13 26-5 12-5 10-13 38-3 10h-3l-10-21-12-18-9-11-11-12-15-14-14-12-10-9-8-7-12-11-2-2-3-10-6-25-4-21-3-27-1-32 1-21 3-25 6-29 8-29 9-27 11-26 8-16 9-16 13-21 11-16 12-16 8-10 9-10 7-8 17-17 11-9 13-11 16-12 18-12 24-14 23-12 20-9 25-9 25-7 28-6 24-4z" fill="#FEFEFE"/>
<path transform="translate(767,202)" d="m0 0h16l25 3 17 4 20 8 19 10 13 9 16 13 14 12 7 7 11 14 7 10 8 13 8 14 7 16 6 16 6 29 3 21v35l-2 17-6 29-10 37-4 17-1 8v23l3 20-1 4-8-8-8-7-12-11h-3l-11 16-2 1 2-6 12-26 10-25 2-7-14 15-10 10-11 9-15 12-17 11-18 10-35 17-18 11-16 13-10 10-9 14-6 12-3 10-3 5h-2l-8-17-7-14-9-11-12-12-13-10-19-12-27-14-21-11-16-10-14-10-11-9-13-13-8-7-8-9 10 25 9 21 7 16v3l-3-1-4-7v-4l-4-2-3-4-9 7-17 14-5 3 1-9 2-12v-20l-3-18-7-25-5-19-8-38-2-21v-18l3-24 6-30 7-20 8-16 4-9h2l2-6 7-11 13-18 12-13 13-13 17-13 15-10 15-8 21-9 16-4 15-2h34l13 3 4 2 4-1 10-4z" fill="#070504"/>
<path transform="translate(781,289)" d="m0 0 2 1-16 10-6 7-1 3 15-10 11-8 3 1-6 5-1 2 16-5 13-3 15-2h22l9 2v2l-13 2h-2v2l9-1h18l15 4v1h-12l-12-1 22 10 9 5 11 9 12 12 9 13 10 19 6 17 3 11 1 7v31l-3 14h-4l-7-7-7-10-9-16-8-16-10-14-11-11-10-7-10-6-16-6-7-1h-18l-10 3-8 5-5 4-5 9-2 5v14l2 9 8 16 6 9 10 10 17 11 23 11 14 10 10 9 8 10 6 10 1 6h2l1 10-7 7-15 11-15 9-16 8-21 7-17 4-31 5-10 1h-57l-24-4-26-6-25-10-16-8-14-8-14-11-7-7 5-12 7-12 9-11 11-10 15-10 11-6 7-3 9-5 12-9 9-9 7-11 4-7 3-10v-18l-6-12-9-8-10-4-4-1h-19l-11 2-8 3-12 6-13 10-10 9-7 9-5 8-8 16-8 15-9 12-4 6-3-1-3-12v-40l4-15 6-15 8-16 8-12 11-12 5-5 9-7 12-7 24-10 9-3h6v-2h-6l-16 5-12 3-4-1 9-4 10-3 10-2 1-3h23l25 5 8 3h4l-1-2 5 1 16 8 5 3-4-7-11-8-3-3 6 2 9 6 6 5 4 4v2h2l9 11 4-2 6-7 7-8 8-7z" fill="#FDF1DD"/>
<path transform="translate(557,517)" d="m0 0 15 15 8 7 10 10 13 10 20 13 18 10 30 15 18 11 11 8 11 9 13 13 7 10 8 16 5 11v2h2l2-5 3-10h4l7 9 5 4 6 3-4-11-2-5v-5l3 3 7 11 3 4 14 7 6 2-2-11-1-2v-6l4 2 7 8 14 11 4 3-3-11h4l9 12 5 5 3 1-2-8v-6l17 17 11 9 7 4 5 3 3 1-3-6v-2h-2l-2-7h2l12 17-1 3-14 8-12 5-13 5-14 3h-24l-13-4-4-3-5-9-8-11-9-10-16-15-7-3v2l-4-1-1-3-7 1-3-1-9 7-13 12-12 12-8 13-5 8-7 3-11 2h-21l-16-4-20-8-17-8-6-3-5-3 1-16 5-26 1-13h-2l-3 9-5 9-4 18-2 16-1 2h-27l-12 2h-5v2h29l14 3 20 8 17 8 11 5 20 6 6 1h23l16-4 3-1h7v-6l6-10 4-3h2l-1 7-1 3 4-2 7-11 3-3 3 2v8l-2 13h3l2-6 7-14 3-7h3v15l-3 17-6 18-6 11-12 13-13 11-15 11-18 10-17 8-24 8-25 6-18 2h-21l-20-2-13-4-16-8-11-7-12-11-8-11-5-11-4-13-1-6v-26l4-22 7-22 7-20 11-24 12-24 12-22 11-24 13-10 13-11 7-4 4 6 2 1 3 7 2 4 2 1-9-21-8-19-8-20z" fill="#A77E61"/>
<path transform="translate(931,517)" d="m0 0 1 2-5 13-11 27-10 21 4-5 8-11 4 1 7 7 8 7 12 11 3 3 15 31 10 19 13 25 8 19 7 21 6 23 3 17v27l-3 14-8 16-4 6-7 8-13 10-23 12-10 3-16 2h-33l-20-3-23-6-20-7-20-10-18-12-16-12-17-17-8-14-4-15-4-27-1-8 5 5 10 20 3 2-2-11-7-14-6-9v-3l4 2 18 22 5 6 2 1-1-6-6-10-11-14 1-2 12 11 9 10 6 11 4 10 4-1 18 5h23l15-3 21-7 26-13 17-6 11-2h28v-2l-13-1-19-2h-11l-2-18-6-20-9-16 1 12 6 32v9l-1 3-6 4h-3l-9-13-3-4v-2h-2l2 4v3h2l4 9-7-2-6-5-7-4-16-15-7-8 1 13-4-1-7-7-7-10h-2l2 7v4l-4-2-10-8-8-7-5-6-2-1 2 8 1 3v8l-9-2-12-7-7-10-4-7 1 8 4 8v4l-6-2-8-7-5-7-2-2 7-14 9-12 12-12 16-12 19-11 39-19 18-11 14-10 17-14 12-11 10-10z" fill="#A77E61"/>
<path transform="translate(744,756)" d="m0 0 2 2 2 9 8 16 12 13 13 11 16 12 16 10 17 9 20 7 25 7 21 4v29l-12 11-11 9-23 23-8 7-10 10-8 7-20 18-8 7-11 4-19 9-12 8-9 7-7-4-10-7-15-8-10-4-16-8-16-15-10-9-15-14-11-11-8-7-14-14-8-7-14-13v-29l23-4 21-6 18-6 8-4 10-4 13-7 17-12 13-11 8-7 9-9 7-11 4-10z" fill="#FDF1DD"/>
<path transform="translate(491,857)" d="m0 0h8l14 3 17 5 22 9 16 8 14 9 13 11 13 12 12 11 11 10 4 6 11 9 14 12 11 9v2l4 2 9 7 16 8 17 7 7 4 1 6-1 2-10-3-9-3h-3l1 5 25 13 12 7v1h-6l-22-11-10-3-7-1 5 5 18 10 18 8v1l-9-1-19-5h-7l1 4 7 4 12 3v1h-12l-44-8-21-3h-95l-23-3-21-5-19-7-15-8-14-10-11-10-11-15-9-19-4-16v-19l3-13 8-15 8-11 10-10 10-6 13-5 10-3z" fill="#A77E61"/>
<path transform="translate(985,857)" d="m0 0 17 1 17 5 14 7 10 8 8 10 10 20 3 14v13l-2 12-5 14-9 17-9 11-12 12-18 12-18 8-18 6-20 4-18 2-19 1h-79l-26 4-38 7-18 2 1-2 25-7 5-1-1-7-14 3-19 7-2-1 28-14 14-8 2-3-14 3-19 8-13 7 2-4 16-10 22-12-1-4-12 3-23 11-5 1 6-7 13-10 16-8 23-11 13-12 9-8 5-5 12-11 8-7 21-21 8-7 14-12 15-11 23-12 26-10 21-7z" fill="#A77E61"/>
<path transform="translate(767,202)" d="m0 0h16l25 3 17 4 20 8 19 10 13 9 16 13 14 12 7 7 11 14 7 10 8 13 8 14 7 16 6 16 6 29 2 13v26h-1l-1-5-8-1-1 6-3 3-4-27-6-21-8-19-7-12-5-9-8-10-7-8-7-5-5-5-15-11-15-7-16-5-18-3h-26l3-3h-10l-16 4-16 6-13 9-12 12-7-8-9-8-9-5-8-4-27-7h-9l10 4v1l-26-1-21 3-14 4-16 8-14 10-15 13-11 12-1 2h-2l-2 5-7 10-8 16-7 19-5 19-3 16-4-5v-2l-6-2h-3l-1-3v-14l7-36 7-20 8-16 4-9h2l2-6 7-11 13-18 12-13 13-13 17-13 15-10 15-8 21-9 16-4 15-2h34l13 3 4 2 4-1 10-4z" fill="#AF886C"/>
<path transform="translate(518,399)" d="m0 0h1l2 9 3-1 5 3 3 5 2-1 2 24 5 24 8 20 11 19 12 13 9 9 17 13 16 10 19 10 21 8 17 5 18 4 30 4 20 1h16l23-2 32-5 24-6 22-8 25-13 19-14 13-11 9-10 12-18 9-17 6-20 3-16 2-21 2 3 3-7h8l1 1 1-13h1v35l-2 17-6 29-10 37-4 17-1 8v23l3 20-1 4-8-8-8-7-12-11h-3l-11 16-2 1 2-6 12-26 10-25 2-7-14 15-10 10-11 9-15 12-17 11-18 10-35 17-18 11-16 13-10 10-9 14-6 12-3 10-3 5h-2l-8-17-7-14-9-11-12-12-13-10-19-12-27-14-21-11-16-10-14-10-11-9-13-13-8-7-8-9 10 25 9 21 7 16v3l-3-1-4-7v-4l-4-2-3-4-9 7-17 14-5 3 1-9 2-12v-20l-3-18-7-25-5-19-8-38-2-21v-18z" fill="#604230"/>
<path transform="translate(326,587)" d="m0 0 5 1 14 10 11 9 10 9 15 14 11 9 11 10 8 7 16 15 10 11 11 15 9 15 8 17h2l-3 24v16l3 20 1 5-5 14-8 16-3 4-4-2-7-8-7-11-9-19-10-23-28-58-18-36-12-22-6-10 5 12 11 24 16 34 12 26 17 38 12 28 1 5-11-6-14-10-13-11-14-13-7-8-8-10-9-14-12-22-8-20-7-24-4-22-1-11v-26l3-16 4-5z" fill="#429387"/>
<path transform="translate(1158,586)" d="m0 0 4 1 4 5 3 9v41l-4 23-7 22-6 16-13 27-11 18-8 10-12 14-8 7-12 10-14 10-13 9-1-3 7-19 8-18 11-24 8-17 15-33 13-29 7-15 4-12-10 21-12 21-24 48-13 28-10 21-13 31-7 11-6 7-3-1-8-16-6-15-1-3 3-16v-29l-2-18 10-21 12-18 12-14 4-5h2l2-4 8-8 8-7 10-9 11-9 13-12 15-15 12-8z" fill="#429387"/>
<path transform="translate(744,756)" d="m0 0 2 2 2 9 8 16 12 13 13 11 16 12 16 10 17 9 20 7 25 7 21 4v29l-12 11-11 9-23 23-8 7-10 10-8 7-20 18-8 7-11 4-19 9-12 8-9 7-7-4-10-7-15-8-10-4-16-8-16-15-10-9-15-14-11-11-8-7-14-14-8-7-14-13v-29l23-4 21-6 18-6 8-4 10-4 13-7 17-12 13-11 8-7 9-9 7-11 4-10zm-1 34-11 13-12 13-10 9-16 12-18 11-29 17-11 8-8 7-14 16 5 5 15 10 18 10 15 7 17 6 15 4 23 4 9 1h29l23-3 19-5 12-4 12-5 15-8 5-4 8-4 16-11 4-3-2-5-11-13-13-10-13-8-11-6-27-16-18-13-7-7-8-7-11-12-7-9z" fill="#909D94"/>
<path transform="translate(823,354)" d="m0 0h18l11 2 12 5 12 7 11 9 10 10 7 10 9 16 6 12 8 13 10 11 2 1-2 12-8 19-10 16-13 15-3 1-2-6-3-1-4-9-7-11-10-11-15-11-16-8-15-8-14-10-11-11-7-12-5-11-2-9v-14l7-14 8-7 9-4z" fill="#614330"/>
<path transform="translate(647,355)" d="m0 0h19l12 4 8 6 6 7 4 9v18l-3 10-8 14-11 12-8 7-6 4-12 7-7 3-8 4-16 11-12 11-8 11-8 15-2 5-4-1-10-11-12-17-7-14-4-14v-4l3-3 11-15 10-19 9-17 8-11 9-9 18-13 12-6 11-3z" fill="#604230"/>
<path transform="translate(436,889)" d="m0 0h1l1 18 4 17 5 12 6 11 8 10 9 10 12 9 18 10 15 6 22 7 21 4 7 1h40l26-3 16-5 34-14 5 1 14 7 17 7 7 4 1 6-1 2-10-3-9-3h-3l1 5 25 13 12 7v1h-6l-22-11-10-3-7-1 5 5 18 10 18 8v1l-9-1-19-5h-7l1 4 7 4 12 3v1h-12l-44-8-21-3h-95l-23-3-21-5-19-7-15-8-14-10-11-10-11-15-9-19-4-16v-19l3-13 8-15z" fill="#604230"/>
<path transform="translate(1051,890)" d="m0 0 3 4 7 14 3 14v13l-2 12-5 14-9 17-9 11-12 12-18 12-18 8-18 6-20 4-18 2-19 1h-79l-26 4-38 7-18 2 1-2 25-7 5-1-1-7-14 3-19 7-2-1 28-14 14-8 2-3-14 3-19 8-13 7 2-4 16-10 22-12-1-4-12 3-23 11-5 1 6-7 13-10 16-8 23-11 18 8 20 8 15 4 24 3h40l22-3 15-4 16-6 17-8 14-9 10-9 12-12 8-13 8-17 4-15 2-17z" fill="#604230"/>
<path transform="translate(767,657)" d="m0 0 3 3 7 11 3 4 14 7 6 2-2-11-1-2v-6l4 2 7 8 14 11 4 3-3-11h4l9 12 5 5 3 1-2-8v-6l17 17 11 9 7 4 5 3 3 1-3-6v-2h-2l-2-7h2l12 17-1 3-14 8-12 5-13 5-14 3h-24l-13-4-4-3-5-9-8-11-9-10-16-15-7-3v2l-4-1-1-3-7 1-3-1-9 7-13 12-12 12-8 13-5 8-7 3-11 2h-21l-16-4-20-8-17-8-1-4 9-13 4-2-1 5-6 10 5-1v-2l17-12 13-12 8-10h2l-3 15 8-6 7-8 3-5h3l-1 5-3 6 14-11 12-11h2l-3 16 8-1 10-5 7-6 5-12h2l1 2v12l-1 4 6-4 8-10 3-3 8 16v2h2l2-5 3-10h4l7 9 5 4 6 3-4-11-2-5z" fill="#FDF1DD"/>
<path transform="translate(760,704)" d="m0 0 8 6 7 7 9 11 5 10 3 8 1 4-5 12-7 11-2 5 5 2 16 8 19 7 25 6 27 4h28l22-3 21-6 15-6 15-10 12-11 9-13 8-16 3-9 2-8 3-1 4 19 1 7v27l-3 14-8 16-4 6-7 8-13 10-23 12-10 3-16 2h-33l-20-3-23-6-20-7-20-10-18-12-16-12-17-17-8-14-4-15-4-27-1-8 5 5 10 20 3 2-2-11-7-14-6-9v-3l4 2 18 22 5 6 2 1-1-6-6-10-11-14z" fill="#604230"/>
<path transform="translate(739,716)" d="m0 0h3v15l-3 17-6 18-6 11-12 13-13 11-15 11-18 10-17 8-24 8-25 6-18 2h-21l-20-2-13-4-16-8-11-7-12-11-8-11-5-11-4-13-1-6v-26l4-22 2-5h1l4 15 6 15 7 12 11 12 9 8 14 8 11 5 18 5 16 3 9 1h35l23-3 22-5 24-8 19-10 1-3-9-17-3-8 1-9 2-6 5-7 5-2-1 7-1 3 4-2 7-11 3-3 3 2v8l-2 13h3l2-6 7-14z" fill="#604230"/>
<path transform="translate(738,386)" d="m0 0h15l9 4 10 9 8 8v2h2l9 14 4 15v8l-2 5v4l9 4 1 4-12 4-8 4-14 5-9 2h-32l-16-4-22-9-9-1 1-5 10-4h2l-1-9-2-12-4 2-14 9-21 12-16 9-16 11-7 7-8 7-5 7v9l7 8 6 5v2l-5-2-14-9-4-3 1-6 7-12 9-11 11-10 15-10 11-6 7-3 9-5 12-9 7-7 6-3 7-8 10-8 8-7 9-8 12-7z" fill="#FAF7F0"/>
<path transform="translate(767,202)" d="m0 0h16l25 3 17 4 20 8 19 10 13 9 16 13 14 12 7 7 11 14 5 7-1 3-5-7-10-3-20-13-13-8-18-8-18-4-16-2-2-2 9-2h14l18 2 10 1-18-7-14-3-9-1-16 1-15 3-9 3-6 1 2-4 19-8 16-5h2v-2l-4-1h-17l-12 3-16 7-14 9-8 7h-2l2-6 9-10 11-7 13-5h5v-2l-17 4-15 8-8 7-7 11-2-1v-11l-1 1-2 15-4-4-1-4-3-1-8-10-8-7-10-5 14 14 5 7 1 4h-3l-14-14-11-8-4-2h-11l-23 1 1 3 20 8 12 7v3l-18-7-15-3h-19l-25 7-15 5-2 2 11-4 17-2h19l9 2 1 3-17 1-16 3-16 6-16 9-14 11-7 5-1-3 1-2-4 1-5 6h-2l1-4 6-8 9-10 14-14 17-13 15-10 15-8 21-9 16-4 15-2h34l13 3 4 2 4-1 10-4z" fill="#D8C5AF"/>
<path transform="translate(322,790)" d="m0 0h25l22 3 23 6 21 9 13 8 9 8 13 17 9 13v2l2 1-10 5-10 9-4 5-7-1-30-10-19-8-15-8-11-8-10-9-10-10-11-16-2-6v-9z" fill="#449387"/>
<path transform="translate(1138,790)" d="m0 0h23l4 1v10l-7 13-11 13-11 11-13 10-15 9-19 8-21 7-12 3-3 1-14-14-9-5 3-8 8-14 9-10 5-5 9-7 25-12 18-6 22-4z" fill="#459387"/>
<path transform="translate(0,1150)" d="m0 0h1498l550 1v2h-2048z" fill="#FEFAEF"/>
<path transform="translate(791,219)" d="m0 0h6v2l-13 4-10 5-9 7-6 7-2 5 10-8 14-9 16-7 12-3h17l4 2v2l-26 9-12 6v1l12-3 11-3 16-2h8l17 3 20 7 3 3-17-2-12-1h-14l-7 2 21 3 15 4 12 5 14 8 20 13 8 4 6 2 4 6 2-1 8 14h-3l-4-6-6-3-10-9-24-16-14-8-15-6-16-4-6-1h-17l-19 3-20 5-13 2-4-1-2-2-2 1h-6l-1-3-5 5-5 7-6-1-4-4v-2l-5-2-1-2-5-1 1 7-6-1-13-8-11-6h-6l1 4 4 2 1 4h-9l-22-6-6-1h-16l-15 2-16 6-13 8-10 7-7 6-8 7-9 8h-2v2l-4 1-1 3h-2v3l-4 1-2 5-7 8-1-4 2-4h2l2-6 7-11 7-10 1 2h2l1-3 6-5 4 1h-2v4l8-6 13-10 16-9 16-6 16-3h17l-1-2-9-2h-19l-17 2-11 4-2-1 4-3 18-6 22-6h19l15 3 18 7-3-3-16-8-13-5-1-4 23-2h11l5 3 12 9 13 13 1-1-4-7-9-10-7-7 2-1 10 6 10 9 6 8 3 3 3 5 2-14 2-2 1 2v10l9-12 10-8 15-7z" fill="#BFA187"/>
<path transform="translate(313,866)" d="m0 0h36l30 5 19 5 29 9-9 19-2 5h-2l-1 10-1 26-10-1-15-5-17-8-16-10-11-9-9-8-9-11-9-14-4-10z" fill="#439387"/>
<path transform="translate(1135,866)" d="m0 0h35l1 1v6l-7 12-9 11-9 10-11 10-15 11-17 10-13 5-18 4v-30l-5-17-7-15 26-8 27-7z" fill="#449387"/>
<path transform="translate(717,658)" d="m0 0h2l1 2v12l-1 4 6-4 8-10 3-3 4 8-2 3h-2l-2 4-6 7-5 2v2l-14 14-3 4h-2l-2 4-9 12-7 11-6 4-9 2h-25l-13-6-12-6-3-4-1-4-6-1 1-3 13-9 13-12 8-10h2l-3 15 8-6 7-8 3-5h3l-1 5-3 6 14-11 12-11h2l-3 16 8-1 10-5 7-6z" fill="#FDF0DC"/>
<path transform="translate(1875,522)" d="m0 0 2 1 3 10 5 17 7 25 5 15 4 14 5 14 5 5 9 2v8l-45 1v-7l15-4-1-10-5-17v-2l-36 1-7 19v9l3 2 16 1v7l-1 1-43-1 1-5 3-4 6-3 5-9 6-17 12-31 10-26 5-12 2-2z" fill="#080605"/>
<path transform="translate(350,638)" d="m0 0 4 4 15 28 10 19 20 40 11 23 12 26 9 21 7 13 9 12 3 3h2l7-12 7-17 1-4h2l7 16 7 9 10 10 15 10 8 4 1 3-20 1-17 3-14 4-3 2h-6l-7-11-13-17-8-9-14-9-18-8-15-5-11-3v-3l1-1 12-1 1-3-7-8-4-6v-2l-4-2-1-7 5 5 17 16 17 13 16 10-4-11-18-41-12-26-17-37-16-34-7-16z" fill="#D6D6C5"/>
<path transform="translate(737,405)" d="m0 0h15l11 3 10 6v2l4 2 7 9 2 4v12l-6 9-9 6-15 5h-23l-12-3-10-5-7-8-2-3v-12l3-8 7-8 9-6 10-4z" fill="#050403"/>
<path transform="translate(589,506)" d="m0 0 8 6 14 9 5 3v2l8 2 2 1v2l11 3 8 4 12 4 7 3 28 7 19 3h54l19-1 25-5 29-9 8-3h5v-2l11-4 6-4 7-3 16-9 4-3h2v-2h2l1-4 1 10-7 7-15 11-15 9-16 8-21 7-17 4-31 5-10 1h-57l-24-4-26-6-25-10-16-8-14-8-14-11-7-7z" fill="#949F94"/>
<path transform="translate(654,272)" d="m0 0 12 1 11 1-2 2 10 4v1l-26-1-21 3-14 4-16 8-14 10-15 13-11 12-1 2h-2l-2 5-7 10-8 16-7 19-5 19-3 16-4-5v-2l-6-2h-3l-1-3v-14l7-36 2-6 1 2 3-1 7-14 8-8 7-8 10-10 5-4 7-4 2-2h3v-2l7-5 5-2h3v-2h3v-2l4-2 7-2 7-4 7-3 15-3z" fill="#A67D60"/>
<path transform="translate(1133,637)" d="m0 0 1 2-8 20-18 39-11 24-9 20-10 21-11 25-6 17-5 9-2 6-6 8-6 7-9 15-2 6-7-1-16-6-13-2-21-1-2-2 16-10 14-11 8-10 8-17 1-3 3 1 10 24 4 7 4-2 9-13 9-21 11-25 16-33 11-23 16-32 13-23z" fill="#D7D7C6"/>
<path transform="translate(829,272)" d="m0 0h12v2l4-1 5 1v2h10l16 6 23 13 10 7 3 1v2l4 1 7 5v2l4 2 3 2v2l4 2 5 6v2h2l3 5v2h2l3 5 4 6v2h2v2l4 2 2-2 6 29 2 13v26h-1l-1-5-8-1-1 6-3 3-4-27-6-21-8-19-7-12-5-9-8-10-7-8-7-5-5-5-15-11-15-7-16-5-18-3h-26l3-3-4-2 1-1z" fill="#A57D60"/>
<path transform="translate(1629,554)" d="m0 0h11l8 4 7 8 1 3v19l-2 19v11l3 4h6l9-3v4l-6 8-7 4h-6l-8-5-2-8-2-1-2 4-11 8-2 1h-8l-10-5-4-5-2-5v-11l3-5 6-4 25-7 7-1-1-14-4-8-5-3h-9l-12 5-2 2-4-1-1-6 6-5 12-5z" fill="#080505"/>
<path transform="translate(985,857)" d="m0 0 17 1 10 3v1l-14 3-17 6-10 3v2l7 1 21 8 1 2-26 1-17 3-27 9-19 9-23 13-26 14-10 5-2-1 4-5 8-7 11-11 8-7 14-12 15-11 23-12 26-10 21-7z" fill="#5F412F"/>
<path transform="translate(1493,554)" d="m0 0h11l10 5 5 7 1 3v18l-2 21v9l3 5 9-1 6-2 1 3-7 9-7 4-8-1-5-3-3-5-2-4-4 5-11 7h-8l-9-4-5-6-2-5v-11l3-5 5-4 30-8 2-1v-14l-5-8-5-2h-9l-12 6-4 1-2-4 1-4 17-9z" fill="#080605"/>
<path transform="translate(739,668)" d="m0 0h2l3 9h2l2-5h4l1 4h2l1 3 9 4 4 5 10 8v2l3 1 9 11 14 17 7 5 9 2h19l10-2 20-8 9-1 2-2 4-2h6v2l-14 8-12 5-13 5-14 3h-24l-13-4-4-3-5-9-8-11-9-10-16-15-7-3v2l-4-1-1-3-7 1-3-1-9 7-13 12-12 12-8 13-5 8-7 3-11 2h-21l-16-4-20-8-17-8-1-4 9-13 4-2-1 5-6 10 5-1v-2l3-1 7 2 3 7 12 6 13 6h25l11-3 5-5 10-15 7-9 14-14 3-4h2v-2l8-6 5-7z" fill="#FAF5E3"/>
<path transform="translate(1705,553)" d="m0 0h1v8l-1 5 19-11 3-1h10l10 5 5 7 1 3v19l-1 16v20l10 1 1 1v6l-1 1-33 1 2-7 5-3h2l1-17v-31l-5-8-5-2-10 1-12 6-1 1-1 9v40l3 2h7v8h-33v-5l5-3 3-2 1-6v-45l-2-5-8-3v-5l16-4z" fill="#070504"/>
<path transform="translate(1393,554)" d="m0 0h4l-2 21-1 14v23l3 7 4 3h10l12-6 3-2v-46l-3-2-8-1-1-5 2-2 23-4h3l-1 12-1 17v38l8 1 5-2h4l-1 5-7 8-3 2-10-1-6-5-2-7-4 2-14 9-4 2-12-1-8-5-4-6-1-5v-46l-1-5-3-2-6-1 1-5z" fill="#080504"/>
<path transform="translate(491,857)" d="m0 0h8l14 3 17 5 22 9 16 8 14 9 13 11 13 12 12 11 11 10 3 4v2l-5-2-40-24-25-13-21-8-16-4-13-2-23-1-2-2 16-6 13-3-3-3-14-6-12-3-18-1 3-2 10-3z" fill="#5F412F"/>
<path transform="translate(835,388)" d="m0 0h15l9 3 10 9 7 10 7 12 9 8-2 2-6-3-5 2-10 7-9 3-11-1-12-5-8-6-7-7-5-10v-8l4-8 5-4z" fill="#040303"/>
<path transform="translate(638,388)" d="m0 0h17l10 6 6 9 1 10-3 7-7 8-12 8-12 4h-8l-13-4-6-4-5-4-4 3-5-1 1-3 9-6 10-18 9-9z" fill="#040303"/>
<path transform="translate(828,219)" d="m0 0h10l13 4 4-1 14 8 13 10 11 9 14 12 7 7 11 14 5 7-1 3-5-7-10-3-20-13-13-8-18-8-18-4-16-2-2-2 9-2h14l18 2 10 1-18-7-14-3-9-1-16 1-15 3-9 3-6 1 2-4 19-8 16-5h2v-2l-4-1-13-1 1-2z" fill="#D7C4AE"/>
<path transform="translate(1326,523)" d="m0 0h35l1 4-2 5-11 7-20 20-7 8-7 7 2 4 8 11 14 18 8 10 8 7 9 3 1 4-3 3-6 1h-10l-9-6-10-12-13-19-12-16-1-6 16-16 7-8 9-9 4-8-10-3-1-1z" fill="#070504"/>
<path transform="translate(1965,523)" d="m0 0h5l1 3-3 5-8 3-2 5-2 49v36l15 1v7l-1 1-42 1 1-7 10-4 3-7v-80l-2-3-11-1v-6l1-2z" fill="#060404"/>
<path transform="translate(1303,523)" d="m0 0h7l-1 7-8 4-2 4-1 19-1 35v30l3 2 11 1v6l-1 2h-40l-1-4 3-4 8-3 3-3v-82l-1-3-10-2v-8z" fill="#060504"/>
<path transform="translate(1e3 1150)" d="m0 0h498l550 1v2h-617v-1l-431-1z" fill="#FEF2DE"/>
<path transform="translate(726,103)" d="m0 0h41l13 1 4 3-4 2h-15l-17-1h-26l-8 1-9 1-6 1-17 1-42 14-16 4-18 8-12 3-6 4-3 3-9 3-14 4-13 8-12 10-14 7-16 10-5 6-13 10-8 6-5 3-6 4-4 2 6-7 12-11 10-8 14-11 18-13 25-15 18-10 27-13 24-9 26-8 33-7 24-4z" fill="#FEFCF7"/>
<path transform="translate(1564,542)" d="m0 0 3 1-1 13h25v7l-1 2h-25v50l2 5 3 2h13l7-1-1 5-8 6-7 3h-7l-9-3-4-5-2-8-1-53-9-3v-5l12-8z" fill="#060404"/>
<path transform="translate(737,405)" d="m0 0h15l11 3 10 6v3l4 6-9 6-10 5-11 3h-8l-16-5-11-7-4-5 8-7 12-6z" fill="#614331"/>
<path transform="translate(714,399)" d="m0 0 2 1-6 7-10 16-2 7v8l4 13 5 10-1 4-12-1-4 1-9-1 1-5 10-4h2l-1-9-2-12-4 2-14 9-21 12-16 9-16 11-7 7-8 7-5 7v9l7 8 6 5v2l-5-2-14-9-4-3 1-6 7-12 9-11 11-10 15-10 11-6 7-3 9-5 12-9 7-7 6-3 7-8 10-8 8-7z" fill="#FCF7E4"/>
<path transform="translate(851,301)" d="m0 0h9l22 10 9 5 11 9 12 12 9 13 10 19 6 17 3 11 1 7v31l-3 14h-4l-5-5 1-5 3-1 2-4-1-21-3-18-7-21-8-15-10-16-9-10-11-7-18-11-16-9z" fill="#F9F4E2"/>
<path transform="translate(739,668)" d="m0 0h2l2 4-1 5-3 3h-2v4l-4 4-8 7-10 9-12 12-8 13-5 8-7 3-11 2h-21l-16-4-20-8-17-8-1-4 9-13 4-2-1 5-6 10 5-1v-2l3-1 7 2 3 7 12 6 13 6h25l11-3 5-5 10-15 7-9 14-14 3-4h2v-2l8-6 5-7z" fill="#F9F4E2"/>
<path transform="translate(797,464)" d="m0 0h7v4l-11 9-21 9-11 3-7 1h-20l-14-3-18-6-12-7-9-6 1-3h10l23 9 13 3h32l13-3 11-5z" fill="#0A0706"/>
<path transform="translate(1133,637)" d="m0 0 1 2-8 20-18 39-11 24-9 20-10 21-11 25-6 17-5 9-2 6-5 5-5 3-2-1-1-5 9-14 11-26 9-20 15-31 11-23 16-32 13-23z" fill="#F8F8F6"/>
<path transform="translate(633,300)" d="m0 0h6v2l-9 5-16 9-14 8-9 7-9 11-8 11-10 16-10 25-2 13v30h9l-2 5-7 10-3-1-3-12v-40l4-15 6-15 8-16 8-12 11-12 5-5 9-7 12-7z" fill="#F8F3E1"/>
<path transform="translate(350,638)" d="m0 0 4 4 15 28 10 19 20 40 11 23 12 26 9 21 7 13 2 5-10-4-5-5-1-4-7-17-19-43-15-32-11-24-15-32-7-16z" fill="#F8F8F4"/>
<path transform="translate(1141,832)" d="m0 0 2 3-1 4-5 7-5 4-6 5-1 4 9 3 6 1-3 3-2 1-27 4-28 8-13 4-8 1-5-7v-2l30-9 22-9 14-8 12-9z" fill="#D6D6C5"/>
<path transform="translate(352,841)" d="m0 0 5 2 14 9 19 9 28 10 15 5-2 4-4 5-10-2-29-9-31-6-18-3 4-1v-2l14-3h7l-2-4-5-4-3-5-2-2z" fill="#D6D6C5"/>
<path transform="translate(791,477)" d="m0 0 2 1-9 9-6 7-12 6-9 3-6 1h-14l-14-4-17-9-8-9-1-4 19 7 11 3 7 1h20l15-3 18-7z" fill="#D8C6B0"/>
<path transform="translate(1118,760)" d="m0 0 2 1-1 4-8 16-3 5 9 1 4 2v2l-5 3-19 5-19 8-17 9-6 5-2-1 5-12 2-2h2l12-8 19-14 13-12 5-4z" fill="#D6D6C5"/>
<path transform="translate(475,812)" d="m0 0 4 2 7 8 7 7 15 10 8 4 1 3-20 1-17 3h-8l-1-7z" fill="#F6F4F1"/>
<path transform="translate(640,290)" d="m0 0h23l25 5 8 3h4l-1-2 5 1 16 8 5 3-4-7-11-8-3-3 6 2 9 6 6 5 4 4v2h2l8 10-1 3-7-2-7-7-13-3-8-5-37-7-10-2h-6v2l-5-2-6-1-16 5-12 3-4-1 9-4 10-3 10-2z" fill="#F8F2E1"/>
<path transform="translate(1012,812)" d="m0 0 2 1v11l2 15v11h-6l-2-1-13-2-21-1-2-2 16-10 14-11 8-10z" fill="#F9F8F5"/>
<path transform="translate(1867,541)" d="m0 0h2l7 25 5 16v4h-30l1-5 13-36z" fill="#D9CCB3"/>
<path transform="translate(616,131)" d="m0 0 2 1-12 6-12 3-6 4-3 3-9 3-14 4-13 8-12 10-14 7-16 10-5 6-13 10-8 6-5 3-6 4-4 2 6-7 12-11 10-8 14-11 18-13 25-15 18-10 10-5 3 1 13-5h8v-2l4 1 1-2 6-2z" fill="#FEFBF3"/>
<path transform="translate(551,856)" d="m0 0h40v26l-7-2-27-13-5-2-2-5v-3z" fill="#5F412F"/>
<path transform="translate(738,386)" d="m0 0h15l9 4 10 9 8 8v2h2l9 14 4 15v8l-2 5v4l9 4 1 4-8 2-10-4-1-1 1-7 4-6v-6l-2-5h-1v-5l1-4-4-6-4-4-7-11-8-9-7-6-5-1h-19l-13 7-4 2 5-5 10-6z" fill="#FEFAE8"/>
<path transform="translate(767,202)" d="m0 0h16l25 3 17 4 20 8 8 4v2l-3 1-8-2v-2h-14l-24 1 3-2h2v-2h-7l-3-3 1-2 8-2v-1l-10-1h-10l-13-3-9-1z" fill="#D8CAB1"/>
<path transform="translate(791,381)" d="m0 0h1l1 14 2 9 8 16 6 9 10 10 12 8v2l-4 2-13-5-10-9-6-7-5-12-3-5-2-9v-9l2-10z" fill="#FBF5E3"/>
<path transform="translate(1637,598)" d="m0 0h6l-1 17-9 6-3 1h-10l-5-6-1-2v-6l5-4 11-4z" fill="#D9CCB3"/>
<path transform="translate(1502,598)" d="m0 0h4v17l-9 6-5 2-8-1-4-4-1-3v-8l4-3 16-5z" fill="#DACEB5"/>
<path transform="translate(367,816)" d="m0 0 8 1 27 9 20 9 18 11 9 7 4 4-2 4h-4v-2l-4-2-17-12-14-8-19-9-26-11z" fill="#F7F7F3"/>
<path transform="translate(726,103)" d="m0 0h41l13 1 4 3-4 2h-15l-17-1h-26l-8 1-9 1-6 1h-26v-1l30-5z" fill="#FEFAF3"/>
<path transform="translate(467,794)" d="m0 0h2l7 16v3l-2 9h-2l1 3-1 4v7l-5 3-4-2-2-5 1-10 1-4-3-4 3-9z" fill="#DCCFB6"/>
<path transform="translate(826,290)" d="m0 0h22l9 2v2l-13 2h-2v2l9-1h18l15 4v1h-12l-6-1h-11l-10-1-5 1-7-4-17 1-12 2-2-2 2-3 7-3z" fill="#F9F4E2"/>
<path transform="translate(1108,819)" d="m0 0 2 1-16 8-25 12-17 11-10 9-5 1-2-1 1-5 9-8 21-12 19-9 19-6z" fill="#F5F5F0"/>
<path transform="translate(1789,615)" d="m0 0h9l4 4 1 2v7l-5 6-2 1-9-1-3-3-1-3v-7l4-5z" fill="#070504"/>
<path transform="translate(1715,599)" d="m0 0 5 1h3l5 1 2 5v11l-5 6-6 1-4-5-1-5v-12z" fill="#D9C6B0"/>
<path transform="translate(811,559)" d="m0 0h5v2l-37 6-10 1h-57l-24-4-14-3v-1h10l22 4 10 1h38l25-1z" fill="#B8A088"/>
<path transform="translate(584,275)" d="m0 0m-1 1m-10 1 4 1h-2v4l6-3-1 4-9 7-5 5h-2v2l-4 1-1 3h-2v3l-4 1-2 5-7 8-1-4 2-4h2l2-6 7-11 7-10 1 2h2l1-3z" fill="#BE9F85"/>
<path transform="translate(781,289)" d="m0 0 2 1-16 10-6 7-1 3 15-10 11-8 3 1-6 5-1 2h5l-3 5-10 3-10 6-8 4-7-1 6-9 10-10 14-8z" fill="#FAF5E5"/>
<path transform="translate(631,920)" d="m0 0 4 2 5 3 6 5 3 3 6 5 5 4 1 4 4 2 4 3 12 12h2l5 5 5 4 1 3 6 3-2 2-11-6-16-15-10-9-15-14-11-11-4-3z" fill="#C7B098"/>
<path transform="translate(587,512)" d="m0 0 6 3 8 5 13 5 8 6 1 3 2 1v3h2l3 3v3l-6-2-17-10-14-11-7-7z" fill="#8F9D93"/>
<path transform="translate(719,460)" d="m0 0 8 1 6 1h31l-1 5-3 3-9 1h-10l-12-3-9-6z" fill="#F6F6F4"/>
<path transform="translate(693,203)" d="m0 0h34v2l-32 1-5 1-4-1v2l-8 3-12 3-11 4-5 1-2 1v-2l-9 4-4-1 27-12 16-4z" fill="#D2C3AB"/>
<path transform="translate(592,680)" d="m0 0h2l2 12 1 14 4 7-4 7-5-1-5-3 1-16z" fill="#AB8368"/>
<path transform="translate(792,221)" d="m0 0h10l-2 4-15 6-11 6-9 7-6 5h-2l2-6 9-10 11-7z" fill="#D9C6B0"/>
<path transform="translate(898,857)" d="m0 0h10l5 4v8l1 5-10 6-2-1-3-9z" fill="#5F412F"/>
<path transform="translate(633,222)" d="m0 0 4 1-5 5-6 5-4 4-1 5-19 6-6 4-2-1 6-7 18-13z" fill="#DACCB3"/>
<path transform="translate(589,506)" d="m0 0 8 6 14 9 5 3v2l8 2 2 1v2l11 3 2 2h-3v2l2 1v2l-8 1-3-2v-2h-2v-3l-5-2 1-2-7-5-13-5-4-3-6-3-1-2-3-1z" fill="#C1A58B"/>
<path transform="translate(782,481)" d="m0 0 4 1h-2v2l-12 8-13 2h-27l-3-1-1-3 26-1 15-3z" fill="#D9CDB5"/>
<path transform="translate(614,363)" d="m0 0h6v2l-11 7-13 11-8 9-8 12h-1l1-7 7-12 2-3h2l2-4 10-9z" fill="#FAF4E1"/>
<path transform="translate(868,362)" d="m0 0 12 4 12 8v2l3 1 9 12 4 7v6h-2l-7-11-11-12-8-7-12-8z" fill="#FAF4E1"/>
<path transform="translate(684,362)" d="m0 0 6 1 8 9 2 5 1 6v14l-1 8-3 2h-3l1-8v-18l-6-12-5-5z" fill="#FAF4E2"/>
<path transform="translate(1931,592)" d="m0 0 3 1 2 13v9l-3 3-8 1-1-8 4-16h2z" fill="#D9C6B0"/>
<path transform="translate(1301,598)" d="m0 0h5v2h2l8 13 1 8-5 1-5-4-3-2-3-14z" fill="#D9C6B0"/>
<path transform="translate(1829,576)" d="m0 0 3 1-6 21-4 12-5 6-3 1v-3h-2l1-6 3-1v-3h2l1-5 5-10z" fill="#D9C6B0"/>
<path transform="translate(353,888)" d="m0 0 8 1 15 4 20 6 17 7 2 3-1 2-6-1-22-10-32-10z" fill="#F3F3ED"/>
<path transform="translate(1316,536)" d="m0 0h8l2 4-6 6h-2l-2 4-4 5-4 1-2-6 3-8z" fill="#D9C6B0"/>
<path transform="translate(623,123)" d="m0 0 3 1-3 3-9 6-9 3-2-1v2l-11 2-10 4-2-1 3-3 23-10z" fill="#FEFDFA"/>
<path transform="translate(899,305)" d="m0 0 9 3 4 2 8 10 6 5 4 9 2 8h-2l-8-12-12-14-7-5-4-4z" fill="#AE866A"/>
<path transform="translate(1115,891)" d="m0 0h5l-4 3-31 12-8 4h-5l-1-3 17-8 23-7z" fill="#F1F1EA"/>
<path transform="translate(1878,525)" d="m0 0 4 4 4 11v5l2 3 4 15-1 2h2l2 11h1v7h-2l-5-15-5-18-5-17z" fill="#F7EAD6"/>
<path transform="translate(778,670)" d="m0 0 8 1 3-1 7 2 2-1 2 5v8l-9-2-12-7-2-4z" fill="#B38D71"/>
<path transform="translate(856,696)" d="m0 0 5 1 12 6h6l1 5h2l4 9-7-2-6-5-7-4-10-9z" fill="#B48F74"/>
<path transform="translate(870,1043)" d="m0 0h62v1h-11v4l-10 2-13-3-6-1v-1l-22-1z" fill="#CBB7A1"/>
<path transform="translate(320,665)" d="m0 0h2l9 30 9 21 1 4-4-4-6-12-4-10-4-9-3-14z" fill="#D6D6C4"/>
<path transform="translate(1451,590)" d="m0 0 3 1v2h2v2l2 1v7l-3 7-4 2-2-3-1-10z" fill="#D9C6B0"/>
<path transform="translate(679,468)" d="m0 0 6 1 9 7 4 8-1 3-4-1-7-7-7-6z" fill="#FAF5E2"/>
<path transform="translate(743,790)" d="m0 0h3l5 6v2h-7l-5 1-2 4-3 3h-2l-2 6-12 9v-3l10-10 7-8z" fill="#FAF5E2"/>
<path transform="translate(644,395)" d="m0 0h7l5 3-1 4-8 4h-6l-2-3 1-5z" fill="#F0F0ED"/>
<path transform="translate(796,726)" d="m0 0 5 2 8 7 10 5v1h-10l-10-4-5-8v-2z" fill="#F6F4EC"/>
<path transform="translate(355,590)" d="m0 0 2 4 3 13 1 4-6-4-8-7-2-7 9 1z" fill="#D6D7C6"/>
<path transform="translate(832,679)" d="m0 0 7 2 3 1 2 9v5l-4-1-7-7-5-8z" fill="#B48F74"/>
<path transform="translate(602,1043)" d="m0 0h49v1l-45 1-4 2h-17l-4-1-17-1v-1z" fill="#C7B39C"/>
<path transform="translate(868,469)" d="m0 0 5 2 10 9 8 10 1 3-3-1-4-4-9-6-7-8z" fill="#F9F2DF"/>
<path transform="translate(1049,810)" d="m0 0 2 1 2 5 2-1-1 5-5 5-5 3-2-1-1-5z" fill="#FAEFDB"/>
<path transform="translate(473,827)" d="m0 0h5l6 5 2 4-1 2h-10l-3 8-1-3z" fill="#FEFAF2"/>
<path transform="translate(742,675)" d="m0 0h2l2 4 2-1v2l4 2 4 4-3 1-1 2-4-1-1-3-7 1-5-2 2-4z" fill="#F7F4EC"/>
<path transform="translate(644,248)" d="m0 0m-5 1h5v2l-15 2-16 6-13 8-10 7-7 6-2-1 8-8 14-9 16-8 13-4z" fill="#C0A288"/>
<path transform="translate(767,662)" d="m0 0 6 12v4l-6-2-8-7-2-4 5-1 2 1 1-2 2 1z" fill="#B28B6F"/>
<path transform="translate(836,396)" d="m0 0 9 1 2 1-1 6-3 2h-6l-5-5 2-4z" fill="#EFEEE9"/>
<path transform="translate(640,290)" d="m0 0h23v1l-21 1v3l-16 5-12 3-4-1 9-4 10-3 10-2z" fill="#AB9E8B"/>
<path transform="translate(851,297)" d="m0 0h18l15 4v1h-12l-6-1h-11l-11-2v-1z" fill="#A78970"/>
<path transform="translate(674,560)" d="m0 0h10l22 4 21 2v1l-15 1-24-4-14-3z" fill="#A9917B"/>
<path transform="translate(1866,565)" d="m0 0 3 1 3 7-1 6h-7l-2-4 1-7z" fill="#D9C6B0"/>
<path transform="translate(1689,571)" d="m0 0 3 1v45h-2z" fill="#C9C8B9"/>
<path transform="translate(467,794)" d="m0 0h2l7 16-2 1-4-2-4-1-1-7z" fill="#D4D3C3"/>
<path transform="translate(815,276)" d="m0 0h14l16 3v1h-37l1-2z" fill="#BA997E"/>
<path transform="translate(608,703)" d="m0 0h2l-1 5-6 10 2 2-4 3-4-2 1-5 9-12z" fill="#F8F0DC"/>
<path transform="translate(1630,605)" d="m0 0h5l2 4-5 5h-7l-2-3 5-5z" fill="#D9C6B0"/>
<path transform="translate(841,350)" d="m0 0 7 1 11 6v1h-6l-5-2-9-2-10-1 2-2z" fill="#FAF4E1"/>
<path transform="translate(668,434)" d="m0 0 1 3-3 5-6 4-11 6h-3l2-4 15-9z" fill="#0E0A08"/>
<path transform="translate(733,205)" d="m0 0 9 2 5 1 5-1-2 6-5 1-4-2-1-2-9-2v-2z" fill="#D8CAB1"/>
<path transform="translate(826,290)" d="m0 0h22l9 2v2l-3 1h-13l-1-3-14-1z" fill="#D2C3B2"/>
<path transform="translate(647,1048)" d="m0 0h11l8 2v2l-2 1-16-1-4-1v-2z" fill="#D9C6B0"/>
<path transform="translate(631,920)" d="m0 0 4 2 5 3 6 5 3 3 2 4v3l-7-6-9-9-4-3z" fill="#B8A189"/>
<path transform="translate(811,559)" d="m0 0h5v2l-29 5h-5v-2l2-1z" fill="#B29981"/>
<path transform="translate(728,490)" d="m0 0h12l13 1v1l-7 2h-14l-3-1z" fill="#EBDFC8"/>
<path transform="translate(797,221)" d="m0 0h5l-2 4-8 3-8 1-2-2 11-5z" fill="#DCCEB4"/>
<path transform="translate(1335,601)" d="m0 0 5 5 8 9 3 2v2l3 1v2l5 2-4 1-8-7-8-9-4-6z" fill="#E8DFCB"/>
<path transform="translate(1878,525)" d="m0 0 4 4 4 11-2 8h-1l-5-20z" fill="#EFE3CE"/>
<path transform="translate(1014,825)" d="m0 0 2 2 2 3 3 3v8l-5-1-1-1z" fill="#DDD0B6"/>
<path transform="translate(588,508)" d="m0 0 1 2 5 2 14 9 3 3-4-1-7-3-9-5-1-2-3-1z" fill="#BEA087"/>
<path transform="translate(878,701)" d="m0 0h2l12 17-1 2-6-2-2-6-1-4h-2z" fill="#ECDFC8"/>
<path transform="translate(649,935)" d="m0 0 4 2 5 3 3 4v2l3 1-4 2-9-8-1-4z" fill="#C3AC95"/>
<path transform="translate(1489,576)" d="m0 0 7 1 1 5-4 2-8-4 1-3z" fill="#D9C6B0"/>
<path transform="translate(922,353)" d="m0 0 4 2 6 12v2l-4-2-6-9-1-4z" fill="#F2F0E9"/>
<path transform="translate(1153,699)" d="m0 0h1v7l-4 9-6 5 2-6z" fill="#D7D5C4"/>
<path transform="translate(1547,566)" d="m0 0h4v52h-1l-1-48z" fill="#FBEEDA"/>
<path transform="translate(618,892)" d="m0 0 4 1 1 5 1 4-5-1-5-5z" fill="#FAF4E2"/>
<path transform="translate(1566,548)" d="m0 0 4 2v4h19v1l-10 1h-13z" fill="#ECDFCB"/>
<path transform="translate(1319,571)" d="m0 0h1l2 7 2 5v3l-4-2-5-7 2-4z" fill="#F3E6D2"/>
<path transform="translate(661,947)" d="m0 0 5 2 6 4 3 4-1 3-4-4-4-1-5-5z" fill="#B39F89"/>
<path transform="translate(707,290)" d="m0 0 6 2 9 6 6 5-2 6-2-1-1-4-5-5-8-6z" fill="#D1BFA9"/>
<path transform="translate(1145,592)" d="m0 0 2 2-17 12-4 2v-7l2 3 11-8z" fill="#D6D6C4"/>
<path transform="translate(548,440)" d="m0 0 1 2 5 1 2 1-2 5-2 3-3-1z" fill="#F4ECE1"/>
<path transform="translate(706,709)" d="m0 0 1 3-7 8-5 9-2-3 6-10z" fill="#E7E3D9"/>
<path transform="translate(660,351)" d="m0 0h7l3 3v2l-22-1v-1l10-1z" fill="#E6D8C3"/>
<path transform="translate(353,888)" d="m0 0 8 1 15 4 4 2-6 1-20-6z" fill="#CACEBF"/>
<path transform="translate(693,727)" d="m0 0 1 4-4 6-4 2h-3l2-4z" fill="#F4EEE4"/>
<path transform="translate(1298,563)" d="m0 0h1l1 12h1l2 7 1 3h-2v-2h-2l-1 4-2-1z" fill="#F4E8D4"/>
<path transform="translate(566,350)" d="m0 0h2l-1 7-6 7h-2l2-6z" fill="#F0E9DE"/>
<path transform="translate(740,665)" d="m0 0 4 3h5l-1 6-2 3h-2l-4-9z" fill="#17110D"/>
<path transform="translate(1869,613)" d="m0 0 4 1 4 5-10 2-1-3z" fill="#D9C6B0"/>
<path transform="translate(1867,541)" d="m0 0h2l2 8v6l-3-4-4 1 1-7z" fill="#E6DAC6"/>
<path transform="translate(589,506)" d="m0 0 8 6 14 9 3 3-6-2-16-10-3-2z" fill="#D8C8B1"/>
<path transform="translate(621,297)" d="m0 0h10l-2 2-15 4-4-1 9-4z" fill="#C5B9A3"/>
<path transform="translate(785,105)" d="m0 0 17 2v2l-4 1h-8z" fill="#FEFAF1"/>
<path transform="translate(1019,793)" d="m0 0 3 1 2 5v3l-8 1z" fill="#EEE4D1"/>
<path transform="translate(1356,533)" d="m0 0 4 1-9 6-12 11-2-1 13-13z" fill="#EADCC7"/>
<path transform="translate(731,806)" d="m0 0 1 2-3 5-11 8v-3l10-10z" fill="#FEF8E6"/>
<path transform="translate(709,484)" d="m0 0 7 1 11 3-1 3-7-1-9-4z" fill="#CFC3AB"/>
<path transform="translate(801,362)" d="m0 0m-1 1 2 2-6 9-4 4 2-9 2-4z" fill="#FBF6E3"/>
<path transform="translate(863,730)" d="m0 0h7v2l-13 5-2-2h2v-2z" fill="#F0ECE3"/>
<path transform="translate(661,277)" d="m0 0h15l9 3v1l-17-1-7-2z" fill="#B49D86"/>
<path transform="translate(1853,578)" d="m0 0h2l1 6h19v1h-23z" fill="#F6EBD7"/>
<path transform="translate(705,564)" d="m0 0 22 2v1l-15 1-7-1z" fill="#AA8F78"/>
<path transform="translate(786,292)" d="m0 0 3 1-6 5-1 2 2 1-7 1-2-2z" fill="#D0C5B1"/>
<path transform="translate(752,661)" d="m0 0 3 1 1 6-3 3h-3l1-9z" fill="#F6EEDB"/>
<path transform="translate(839,536)" d="m0 0h5v3l-9 3h-5l3-3z" fill="#FEF9E6"/>
<path transform="translate(688,968)" d="m0 0 5 4 1 3 6 3-2 2-8-4v-2l-5-5z" fill="#BDA38B"/>
<path transform="translate(608,703)" d="m0 0h2l-1 5-4 6-4-1 4-7z" fill="#F4E7D2"/>
<path transform="translate(677,233)" d="m0 0 7 1 9 5-1 2-13-5z" fill="#DBCCB3"/>
<path transform="translate(764,1032)" d="m0 0h5l-1 2-16 6-2-1z" fill="#7B5943"/>
<path transform="translate(769,667)" d="m0 0 2 4 2 3v4l-6-2-3-3 4-2z" fill="#C7AC93"/>
<path transform="translate(576,569)" d="m0 0 5 4 3 7v3l-3-1-4-7z" fill="#463023"/>
<path transform="translate(1882,528)" d="m0 0 3 4 4 13v3h-2l-2-2v-6l-3-9z" fill="#DAC9B2"/>
<path transform="translate(668,434)" d="m0 0 1 3-3 5-6 4-2 1 1-5 8-6z" fill="#2F221A"/>
<path transform="translate(726,404)" d="m0 0h8v2l-11 4h-2l1-4z" fill="#FCFBF8"/>
<path transform="translate(1164,667)" d="m0 0h1v6l-3 9-3 3 2-10z" fill="#D6D6C4"/>
<path transform="translate(350,638)" d="m0 0 4 4 5 9v2h-3l-6-13z" fill="#E2E3D8"/>
<path transform="translate(1481,616)" d="m0 0 6 3 8 1v2l-6 1-6-2-2-2z" fill="#E4D9C4"/>
<path transform="translate(647,539)" d="m0 0 10 3v3l-9-1-4-4z" fill="#C5AA91"/>
<path transform="translate(763,472)" d="m0 0h7l3 1v2l-8 2h-5l3-1z" fill="#F0ECE6"/>
<path transform="translate(761,690)" d="m0 0 4 2 5 3 2 6-6-4-5-5z" fill="#E5E5DD"/>
<path transform="translate(650,277)" d="m0 0h11l1 2-3 1h-13z" fill="#AD8A70"/>
<path transform="translate(680,236)" d="m0 0 9 3 8 2 2 4-17-6-2-1z" fill="#D9C6B0"/>
<path transform="translate(367,816)" d="m0 0 8 1 10 3-4 2-10-3z" fill="#D6D7C7"/>
<path transform="translate(781,289)" d="m0 0 2 1-16 10h-3l4-4z" fill="#C2AE97"/>
<path transform="translate(471,846)" d="m0 0 1 4 4 1-10 3-3-1z" fill="#EAE0CD"/>
<path transform="translate(1133,637)" d="m0 0 1 2-6 16-2-4z" fill="#E1E2D7"/>
<path transform="translate(1905,613)" d="m0 0 4 5 1 3 6 2v1l-7-1-4-5z" fill="#EBE1CE"/>
<path transform="translate(793,562)" d="m0 0 5 1v1l-11 2h-5v-2l2-1z" fill="#B39D86"/>
<path transform="translate(884,314)" d="m0 0 6 1 4 4-5 1-4-2z" fill="#F2EBE0"/>
<path transform="translate(939,442)" d="m0 0h1v7h-4l-2-4z" fill="#F4EEE3"/>
<path transform="translate(744,756)" d="m0 0 2 2 1 9-3-1-2 1 1-9z" fill="#A98E77"/>
<path transform="translate(592,658)" d="m0 0 1 3-6 12h-2l3-9z" fill="#B08B6F"/>
<path transform="translate(746,402)" d="m0 0h6l4 3h-15l2-2z" fill="#FEFEFE"/>
<path transform="translate(726,705)" d="m0 0v3l-8 9-4 4 1-4z" fill="#604230"/>
<path transform="translate(692,562)" d="m0 0 13 2v2h-7l-6-2z" fill="#AC927B"/>
<path transform="translate(871,891)" d="m0 0 3 3v2l-6 4-1-2 2-5z" fill="#F7EFDC"/>
<path transform="translate(1641,621)" d="m0 0 3 1v8l-1-2-5-1 2-4z" fill="#E1D5C1"/>
<path transform="translate(865,285)" d="m0 0 6 1 9 4-1 2-9-3-5-2z" fill="#A17C62"/>
<path transform="translate(743,1045)" d="m0 0 3 1 1 6-6 1z" fill="#EFE2CD"/>
<path transform="translate(1677,605)" d="m0 0 2 2-2 1 1 6-3 1v-4h-2l-1-3h2v-2z" fill="#D9C6B0"/>
<path transform="translate(1882,594)" d="m0 0h2l3 8v7l-2-4-4-10z" fill="#EBE1CD"/>
<path transform="translate(616,131)" d="m0 0 2 1-12 6h-5l2-1v-2l4 1 1-2 6-2z" fill="#FEFCF6"/>
<path transform="translate(636,873)" d="m0 0 3 1-7 6-5 5v-3l5-5z" fill="#FAF2DF"/>
<path transform="translate(878,701)" d="m0 0h2l6 9-3 2-1-4h-2z" fill="#E7D8C1"/>
<path transform="translate(646,686)" d="m0 0 2 4 4 2-5 4h-2z" fill="#C3A78D"/>
<path transform="translate(1396,617)" d="m0 0h2l1 2 11 2-2 2h-7l-5-4z" fill="#E7DBC6"/>
<path transform="translate(642,294)" d="m0 0 6 1v2l-11 2v-3z" fill="#1B120E"/>
<path transform="translate(668,955)" d="m0 0 4 2 2 2h3l1 4-1 2-7-7-2-1z" fill="#BDAD98"/>
<path transform="translate(655,685)" d="m0 0 3 1-5 5-5 1 2-4z" fill="#B1896E"/>
<path transform="translate(1707,560)" d="m0 0 1 2 6-2-5 5-4 1v-5z" fill="#E1D3BD"/>
<path transform="translate(763,300)" d="m0 0h2l-2 4-3 3-4 3-2-1z" fill="#EAE1D1"/>
<path transform="translate(737,702)" d="m0 0h2l1 6-5 1v-4z" fill="#614533"/>
<path transform="translate(797,665)" d="m0 0 4 2v5l-3 1-1-2z" fill="#F9F0DD"/>
<path transform="translate(717,658)" d="m0 0h2v12l-3-4z" fill="#FAF4E1"/>
<path transform="translate(1602,622)" d="m0 0h2l4 6 4 4h-3l-7-7z" fill="#E5D9C5"/>
</svg>
